<?xml version="1.0" standalone="no"?>
<!DOCTYPE svg PUBLIC "-//W3C//DTD SVG 20010904//EN"
 "http://www.w3.org/TR/2001/REC-SVG-20010904/DTD/svg10.dtd">
<svg version="1.0" xmlns="http://www.w3.org/2000/svg"
 width="512.000000pt" height="512.000000pt" viewBox="0 0 512.000000 512.000000"
 preserveAspectRatio="xMidYMid meet">
<metadata>
Created by potrace 1.11, written by Peter Selinger 2001-2013
</metadata>
<g transform="translate(0.000000,512.000000) scale(0.100000,-0.100000)"
fill="#000000" stroke="none">
<path d="M2495 4692 c-326 -38 -576 -317 -573 -641 2 -343 271 -622 613 -636
261 -11 511 147 614 387 72 169 62 394 -27 555 -106 195 -311 325 -521 332
-36 1 -67 3 -70 4 -3 2 -19 1 -36 -1z"/>
<path d="M1057 4254 c-89 -21 -183 -72 -252 -139 -107 -103 -155 -212 -161
-361 -6 -158 44 -284 155 -395 240 -240 628 -201 819 82 105 156 116 357 29
532 -107 215 -357 334 -590 281z"/>
<path d="M3820 4250 c-88 -24 -128 -42 -186 -86 -59 -44 -70 -56 -118 -118
-152 -200 -131 -496 49 -681 97 -99 206 -151 339 -161 320 -24 593 241 572
556 -7 107 -23 164 -71 247 -35 59 -126 150 -186 185 -116 68 -274 91 -399 58z"/>
<path d="M2355 3180 c-211 -44 -386 -143 -544 -306 -120 -125 -216 -279 -309
-494 -8 -20 -10 -14 -6 35 12 153 31 257 73 382 20 59 25 85 17 91 -79 60
-365 113 -489 91 -84 -15 -103 -21 -175 -56 -236 -115 -448 -365 -485 -572 -9
-47 -12 -255 -11 -706 1 -687 1 -681 54 -784 47 -93 170 -185 280 -210 26 -6
187 -11 382 -11 309 0 338 1 350 18 41 55 230 188 353 250 130 64 306 120 435
137 25 3 59 9 75 11 90 16 338 10 485 -11 265 -38 555 -173 744 -346 l64 -59
334 0 c188 0 352 5 377 11 158 36 302 183 327 335 8 50 9 1306 0 1356 -21 128
-140 305 -297 442 -46 41 -153 116 -164 116 -4 0 -21 10 -38 22 -18 13 -32 21
-32 20 0 -2 -13 2 -30 8 -111 42 -202 45 -384 11 -67 -13 -185 -54 -207 -72
-10 -8 -7 -24 11 -77 30 -82 63 -222 70 -294 3 -29 7 -74 10 -100 2 -27 0 -48
-5 -48 -6 0 -10 7 -10 16 0 26 -94 212 -148 294 -68 103 -147 195 -223 261
-141 122 -252 181 -450 235 -89 25 -323 26 -434 4z m350 -854 c146 -43 266
-141 328 -269 45 -93 59 -153 58 -251 -2 -310 -267 -549 -580 -522 -274 23
-483 251 -482 526 1 154 50 276 152 379 135 135 343 189 524 137z"/>
</g>
</svg>
